<svg xmlns="http://www.w3.org/2000/svg" width="500" height="500" viewBox="0 0 500 500"><g transform="translate(100,100)translate(150,150)rotate(0)translate(-150,-150) scale(0.9939402774418628,0.9939402774418628)" opacity="1"><defs class="defs"><linearGradient id="linearGradientdb2d51a54d35dcb72e725294b19e4e00" class="linearGradient1" gradientTransform="translate(0.5,0.5) rotate(0) translate(-0.5,-0.5)" x1="50%" y1="0%" x2="50%" y2="100%"><stop id="stop1" offset="0%" class="linearGradientColor1" stop-color="#DB9045"/><stop id="stop2" offset="100%" class="linearGradientColor2" stop-color="#984B17"/></linearGradient></defs><path fill="url(#linearGradientdb2d51a54d35dcb72e725294b19e4e00)" d="M151.345,5.238C71.182,5.238,6.201,70.34,6.201,150.655c0,80.318,64.98,145.418,145.144,145.418&#10;&#9;c80.157,0,145.141-65.101,145.141-145.417C296.486,70.34,231.502,5.238,151.345,5.238z M151.345,257.444&#10;&#9;c-58.869,0-106.585-47.807-106.585-106.789c0-58.979,47.717-106.786,106.585-106.786c58.864,0,106.586,47.807,106.586,106.786&#10;&#9;C257.931,209.637,210.209,257.444,151.345,257.444z" class="color c1"/><path fill="#404041" d="M150.914,301.829C67.7,301.829,0,234.128,0,150.914S67.7,0,150.914,0s150.915,67.7,150.915,150.914&#10;&#9;S234.128,301.829,150.914,301.829z M150.914,3.316C69.528,3.316,3.316,69.528,3.316,150.914&#10;&#9;c0,81.386,66.212,147.598,147.598,147.598c81.386,0,147.598-66.212,147.598-147.598C298.512,69.528,232.3,3.316,150.914,3.316z" class="color c2"/></g><g transform="translate(125.31966186893477,300.66378710389495)translate(125.50828002559655,46.63120212024316)rotate(0)translate(-125.50828002559655,-46.63120212024316)" opacity="1"><defs/><path transform="translate(39.9992371563836,5.065069352270264)rotate(55.93154254314878)" d="M16.29 13.27L16.29 13.27Q14.72 12.28 13.04 11.78L13.04 11.78L13.04 11.78Q11.36 11.29 9.95 11.29L9.95 11.29L9.95 11.29Q8 11.29 6.83 12.04L6.83 12.04L6.83 12.04Q5.66 12.79 5.66 14.10L5.66 14.10L5.66 14.10Q5.66 15.29 6.37 16.04L6.37 16.04L6.37 16.04Q7.07 16.79 8.10 17.22L8.10 17.22L8.10 17.22Q9.12 17.66 10.94 18.23L10.94 18.23L10.94 18.23Q13.22 18.94 14.62 19.58L14.62 19.58L14.62 19.58Q16.03 20.22 17.02 21.48L17.02 21.48L17.02 21.48Q18.02 22.74 18.02 24.82L18.02 24.82L18.02 24.82Q18.02 26.74 16.98 28.18L16.98 28.18L16.98 28.18Q15.94 29.62 14.06 30.41L14.06 30.41L14.06 30.41Q12.19 31.19 9.76 31.19L9.76 31.19L9.76 31.19Q7.30 31.19 4.96 30.23L4.96 30.23L4.96 30.23Q2.62 29.27 0.93 27.67L0.93 27.67L2.30 25.02L2.30 25.02Q3.90 26.58 5.90 27.43L5.90 27.43L5.90 27.43Q7.90 28.28 9.79 28.28L9.79 28.28L9.79 28.28Q12.03 28.28 13.33 27.40L13.33 27.40L13.33 27.40Q14.62 26.52 14.62 25.02L14.62 25.02L14.62 25.02Q14.62 23.83 13.92 23.06L13.92 23.06L13.92 23.06Q13.22 22.30 12.14 21.85L12.14 21.85L12.14 21.85Q11.07 21.40 9.25 20.86L9.25 20.86L9.25 20.86Q7.01 20.18 5.60 19.54L5.60 19.54L5.60 19.54Q4.19 18.90 3.22 17.66L3.22 17.66L3.22 17.66Q2.24 16.41 2.24 14.36L2.24 14.36L2.24 14.36Q2.24 12.57 3.23 11.19L3.23 11.19L3.23 11.19Q4.22 9.82 6.02 9.08L6.02 9.08L6.02 9.08Q7.81 8.34 10.18 8.34L10.18 8.34L10.18 8.34Q12.19 8.34 14.13 8.94L14.13 8.94L14.13 8.94Q16.06 9.53 17.57 10.52L17.57 10.52L16.29 13.27Z" fill="#2f2f30"/><path transform="translate(50.5207678828953,18.17941647466602)rotate(46.58889808842822)" d="M23.17 31L19.84 31L17.47 25.56L5.66 25.56L3.33 31L0.10 31L10.05 8.60L13.25 8.60L23.17 31ZM11.55 11.90L6.88 22.78L16.29 22.78L11.55 11.90Z" fill="#2f2f30"/><path transform="translate(65.86954028339464,31.494027364650172)rotate(35.29246518086988)" d="M3.20 31L3.20 8.60L6.85 8.60L15.04 24.34L23.17 8.60L26.85 8.60L26.85 31L23.97 31L23.94 13.11L15.97 28.63L14.08 28.63L6.05 13.11L6.05 31L3.20 31Z" fill="#2f2f30"/><path transform="translate(89.8429616175082,44.10845964672412)rotate(20.212795136570115)" d="M11.84 8.60L11.84 8.60Q16.03 8.60 18.32 10.58L18.32 10.58L18.32 10.58Q20.61 12.57 20.61 16.15L20.61 16.15L20.61 16.15Q20.61 19.90 18.30 21.96L18.30 21.96L18.30 21.96Q16 24.02 11.84 24.02L11.84 24.02L6.27 24.02L6.27 31L3.20 31L3.20 8.60L11.84 8.60ZM11.71 21.24L11.71 21.24Q14.59 21.24 16.13 19.98L16.13 19.98L16.13 19.98Q17.66 18.71 17.66 16.25L17.66 16.25L17.66 16.25Q17.66 13.85 16.13 12.62L16.13 12.62L16.13 12.62Q14.59 11.38 11.71 11.38L11.71 11.38L6.27 11.42L6.27 21.24L11.71 21.24Z" fill="#2f2f30"/><path transform="translate(107.77273609675635,48.93051686156236)rotate(9.89325222071338)" d="M3.20 31L3.20 8.60L6.27 8.60L6.27 28.22L16.06 28.22L16.06 31L3.20 31Z" fill="#2f2f30"/><path transform="translate(121.57324188539837,50.39049880350665)rotate(2.1846835332168855)" d="M3.20 31L3.20 8.60L18.75 8.60L18.75 11.38L6.27 11.38L6.27 18.30L17.44 18.30L17.44 21.08L6.27 21.08L6.27 28.22L19.14 28.22L19.14 31L3.20 31Z" fill="#2f2f30"/><path transform="translate(139.54466521521383,49.50676053024218)rotate(352.18485330297386)" d="" fill="#2f2f30"/><path transform="translate(144.9749997592773,48.613358120729664)rotate(349.1298493181504)" d="" fill="#2f2f30"/><path transform="translate(150.35000334667131,47.431817786557836)rotate(346.0748453333269)" d="M19.42 13.98L19.42 13.98Q18.14 12.63 16.45 11.88L16.45 11.88L16.45 11.88Q14.75 11.13 12.96 11.13L12.96 11.13L12.96 11.13Q10.59 11.13 8.61 12.28L8.61 12.28L8.61 12.28Q6.62 13.43 5.47 15.40L5.47 15.40L5.47 15.40Q4.32 17.37 4.32 19.74L4.32 19.74L4.32 19.74Q4.32 22.07 5.47 24.06L5.47 24.06L5.47 24.06Q6.62 26.04 8.61 27.19L8.61 27.19L8.61 27.19Q10.59 28.34 12.96 28.34L12.96 28.34L12.96 28.34Q14.72 28.34 16.42 27.62L16.42 27.62L16.42 27.62Q18.11 26.90 19.42 25.66L19.42 25.66L21.28 27.67L21.28 27.67Q19.58 29.34 17.34 30.28L17.34 30.28L17.34 30.28Q15.10 31.22 12.80 31.22L12.80 31.22L12.80 31.22Q9.60 31.22 6.94 29.70L6.94 29.70L6.94 29.70Q4.29 28.18 2.75 25.56L2.75 25.56L2.75 25.56Q1.22 22.94 1.22 19.77L1.22 19.77L1.22 19.77Q1.22 16.63 2.77 14.02L2.77 14.02L2.77 14.02Q4.32 11.42 7.01 9.91L7.01 9.91L7.01 9.91Q9.70 8.41 12.93 8.41L12.93 8.41L12.93 8.41Q15.26 8.41 17.46 9.29L17.46 9.29L17.46 9.29Q19.65 10.17 21.25 11.77L21.25 11.77L19.42 13.98Z" fill="#2f2f30"/><path transform="translate(168.7117168096725,40.989550349409235)rotate(335.25797721947185)" d="M23.17 31L19.84 31L17.47 25.56L5.66 25.56L3.33 31L0.10 31L10.05 8.60L13.25 8.60L23.17 31ZM11.55 11.90L6.88 22.78L16.29 22.78L11.55 11.90Z" fill="#2f2f30"/><path transform="translate(186.23892411014265,30.7104121754002)rotate(323.9615443119135)" d="M3.20 31L3.20 8.60L17.79 8.60L17.76 11.38L6.27 11.38L6.27 18.74L16.61 18.74L16.61 21.53L6.27 21.53L6.27 31L3.20 31Z" fill="#2f2f30"/><path transform="translate(197.8968712545843,20.829524918437293)rotate(315.471458549395)" d="M3.20 31L3.20 8.60L18.75 8.60L18.75 11.38L6.27 11.38L6.27 18.30L17.44 18.30L17.44 21.08L6.27 21.08L6.27 28.22L19.14 28.22L19.14 31L3.20 31Z" fill="#2f2f30"/></g><g transform="translate(120.47817323112038,104.96553363137096)translate(129.34976866341094,49.036352144491104)rotate(0)translate(-129.34976866341094,-49.036352144491104)" opacity="1"><defs/><path transform="translate(29.996241908619822,92.58589405928025)rotate(295.41621316498373)" d="M2.20 1L2.20-14.40L4.31-14.40L4.31-7.54L13.11-7.54L13.11-14.40L15.25-14.40L15.25 1L13.11 1L13.11-5.62L4.31-5.62L4.31 1L2.20 1Z" fill="#2f2f30"/><path transform="translate(43.5543179153815,70.95545846211594)rotate(308.7432110346467)" d="M2.20 1L2.20-14.40L4.31-14.40L4.31 1L2.20 1Z" fill="#2f2f30"/><path transform="translate(53.456875870051135,60.171069990219436)rotate(316.3750054323153)" d="M12.85-1.95L12.85-6.52L14.72-6.52L14.72-0.87L14.72-0.87Q13.55 0.05 11.99 0.60L11.99 0.60L11.99 0.60Q10.43 1.15 8.89 1.15L8.89 1.15L8.89 1.15Q6.67 1.15 4.82 0.11L4.82 0.11L4.82 0.11Q2.97-0.94 1.90-2.75L1.90-2.75L1.90-2.75Q0.84-4.57 0.84-6.72L0.84-6.72L0.84-6.72Q0.84-8.88 1.91-10.67L1.91-10.67L1.91-10.67Q2.99-12.46 4.86-13.50L4.86-13.50L4.86-13.50Q6.73-14.53 9.00-14.53L9.00-14.53L9.00-14.53Q10.60-14.53 12.13-13.96L12.13-13.96L12.13-13.96Q13.66-13.39 14.78-12.40L14.78-12.40L13.57-10.86L13.57-10.86Q12.65-11.72 11.45-12.19L11.45-12.19L11.45-12.19Q10.25-12.66 9.00-12.66L9.00-12.66L9.00-12.66Q7.35-12.66 5.96-11.87L5.96-11.87L5.96-11.87Q4.58-11.08 3.77-9.71L3.77-9.71L3.77-9.71Q2.97-8.35 2.97-6.72L2.97-6.72L2.97-6.72Q2.97-5.09 3.78-3.72L3.78-3.72L3.78-3.72Q4.60-2.34 5.98-1.54L5.98-1.54L5.98-1.54Q7.37-0.74 9.02-0.74L9.02-0.74L9.02-0.74Q9.99-0.74 10.99-1.06L10.99-1.06L10.99-1.06Q11.99-1.38 12.85-1.95L12.85-1.95Z" fill="#2f2f30"/><path transform="translate(73.05921453950765,45.290930655615426)rotate(329.220712904446)" d="M2.20 1L2.20-14.40L4.31-14.40L4.31-7.54L13.11-7.54L13.11-14.40L15.25-14.40L15.25 1L13.11 1L13.11-5.62L4.31-5.62L4.31 1L2.20 1Z" fill="#2f2f30"/><path transform="translate(96.35950084675198,34.860502710001725)rotate(342.54771077410896)" d="" fill="#2f2f30"/><path transform="translate(109.85135071821888,31.538795866687224)rotate(349.7898932988429)" d="M17.05 1.04L17.93 2.56L17.93 2.56Q17.05 3.35 15.99 3.79L15.99 3.79L15.99 3.79Q14.94 4.23 13.90 4.23L13.90 4.23L13.90 4.23Q12.52 4.23 11.29 3.44L11.29 3.44L11.29 3.44Q10.05 2.65 9.06 1.15L9.06 1.15L8.93 1.15L8.93 1.15Q6.71 1.15 4.85 0.11L4.85 0.11L4.85 0.11Q2.99-0.94 1.91-2.75L1.91-2.75L1.91-2.75Q0.84-4.57 0.84-6.72L0.84-6.72L0.84-6.72Q0.84-8.88 1.91-10.67L1.91-10.67L1.91-10.67Q2.99-12.46 4.84-13.50L4.84-13.50L4.84-13.50Q6.69-14.53 8.93-14.53L8.93-14.53L8.93-14.53Q11.15-14.53 13.01-13.50L13.01-13.50L13.01-13.50Q14.87-12.46 15.95-10.67L15.95-10.67L15.95-10.67Q17.03-8.88 17.03-6.72L17.03-6.72L17.03-6.72Q17.03-4.94 16.29-3.40L16.29-3.40L16.29-3.40Q15.55-1.86 14.26-0.76L14.26-0.76L14.26-0.76Q12.96 0.34 11.29 0.82L11.29 0.82L11.29 0.82Q12.74 2.39 14.15 2.39L14.15 2.39L14.15 2.39Q15.42 2.39 17.05 1.04L17.05 1.04ZM2.97-6.72L2.97-6.72Q2.97-5.09 3.78-3.73L3.78-3.73L3.78-3.73Q4.60-2.37 5.97-1.56L5.97-1.56L5.97-1.56Q7.35-0.76 8.95-0.76L8.95-0.76L8.95-0.76Q10.56-0.76 11.91-1.56L11.91-1.56L11.91-1.56Q13.27-2.37 14.07-3.73L14.07-3.73L14.07-3.73Q14.87-5.09 14.87-6.72L14.87-6.72L14.87-6.72Q14.87-8.35 14.07-9.70L14.07-9.70L14.07-9.70Q13.27-11.06 11.91-11.85L11.91-11.85L11.91-11.85Q10.56-12.64 8.95-12.64L8.95-12.64L8.95-12.64Q7.35-12.64 5.97-11.85L5.97-11.85L5.97-11.85Q4.60-11.06 3.78-9.70L3.78-9.70L3.78-9.70Q2.97-8.35 2.97-6.72L2.97-6.72Z" fill="#2f2f30"/><path transform="translate(135.96777160554822,29.996137128809607)rotate(3.4492069440132127)" d="M3.98-5.29L3.98-5.29Q3.98-3.16 5.16-1.96L5.16-1.96L5.16-1.96Q6.34-0.76 8.40-0.76L8.40-0.76L8.40-0.76Q10.45-0.76 11.62-1.96L11.62-1.96L11.62-1.96Q12.78-3.16 12.78-5.29L12.78-5.29L12.78-14.40L14.89-14.40L14.89-5.29L14.89-5.29Q14.89-2.28 13.17-0.56L13.17-0.56L13.17-0.56Q11.44 1.15 8.40 1.15L8.40 1.15L8.40 1.15Q5.35 1.15 3.61-0.56L3.61-0.56L3.61-0.56Q1.87-2.28 1.87-5.29L1.87-5.29L1.87-14.40L3.98-14.40L3.98-5.29Z" fill="#2f2f30"/><path transform="translate(160.44594359445279,34.28371039643953)rotate(16.420967420055383)" d="M15.93 1L13.64 1L12.01-2.74L3.89-2.74L2.29 1L0.07 1L6.91-14.40L9.11-14.40L15.93 1ZM7.94-12.13L4.73-4.65L11.20-4.65L7.94-12.13Z" fill="#2f2f30"/><path transform="translate(182.64558050242522,43.57028594884228)rotate(28.98020235290588)" d="M2.20 1L2.20-14.40L4.31-14.40L4.31-0.91L11.04-0.91L11.04 1L2.20 1Z" fill="#2f2f30"/><path transform="translate(198.90971548099796,54.58294539494972)rotate(39.22468766626215)" d="M2.20 1L2.20-14.40L4.31-14.40L4.31 1L2.20 1Z" fill="#2f2f30"/><path transform="translate(209.6105094724569,64.57577766166582)rotate(46.85648206393071)" d="M0.22-12.46L0.22-14.40L12.25-14.40L12.25-12.46L7.28-12.46L7.28 1L5.17 1L5.17-12.46L0.22-12.46Z" fill="#2f2f30"/><path transform="translate(222.21936995484705,80.84573289087979)rotate(57.59371063601952)" d="M11.64-14.40L13.79-14.40L8.03-4.28L8.03 1L5.92 1L5.92-4.19L0.07-14.40L2.22-14.40L6.97-6.55L11.64-14.40Z" fill="#2f2f30"/></g><g transform="translate(148.07660860291492,146.89655172413796)translate(102.81212228937089,103.34482758620672)rotate(0)translate(-102.81212228937089,-103.34482758620672) scale(1.0641094028997795,1.0641094028997795)" opacity="1"><defs class="defs"/><path fill="#2F2F30" d="M96.619,0C43.256,0,0,43.338,0,96.8c0,53.468,43.256,96.804,96.619,96.804&#10;&#9;c53.359,0,96.617-43.336,96.617-96.804C193.236,43.338,149.978,0,96.619,0z" class="color c1"/><path fill="#c97c45" d="M96.619,10.284c-47.695,0-86.354,38.732-86.354,86.516c0,47.787,38.659,86.521,86.354,86.521&#10;&#9;c47.689,0,86.353-38.732,86.353-86.521C182.97,49.017,144.308,10.284,96.619,10.284z" class="color c2"/></g><g transform="translate(116.01470588235291,215)translate(10.808823529411764,35)rotate(0)translate(-10.808823529411764,-35) scale(1.014056058674525,1.014056058674525)" opacity="1"><defs class="defs"/><path fill="#404041" d="M16.582,20.393c2.813-2.087,4.693-5.991,4.736-6.007c0.01,0.025-3.07-1.348-6.211,0.699&#10;&#9;c-3.189,2.067-4.644,6.839-4.598,6.817C10.521,21.928,13.732,22.498,16.582,20.393z M9.578,21.666&#10;&#9;c-0.028-0.024,1.167-4.714,0.542-8.564C9.472,9.224,6.669,7.589,6.637,7.61c-0.038-0.03-2.343,5.351-1.303,9.274&#10;&#9;C6.335,20.775,9.605,21.646,9.578,21.666z M18.218,22.587c0.015,0.023-3.243-0.852-5.987,1.561c-2.788,2.434-3.449,7.243-3.407,7.22&#10;&#9;c0.011,0.021,3.272,0.097,5.741-2.344C16.998,26.604,18.181,22.608,18.218,22.587z M7.862,31.273&#10;&#9;c-0.028-0.021,0.392-4.713-0.874-8.309c-1.296-3.614-4.335-4.77-4.361-4.746C2.588,18.19,1.24,23.662,2.904,27.29&#10;&#9;C4.524,30.886,7.885,31.249,7.862,31.273z M8.643,40.785c0.016,0.021,3.25-0.394,5.31-3.125c2.027-2.711,2.551-6.738,2.582-6.762&#10;&#9;c0.016,0.021-3.336-0.349-5.659,2.384C8.52,36.039,8.607,40.815,8.643,40.785z M7.681,40.835c-0.032-0.02-0.341-4.645-2.163-7.927&#10;&#9;c-1.857-3.305-5.045-3.968-5.066-3.944c-0.043-0.022-0.487,5.454,1.713,8.73C4.326,40.951,7.698,40.81,7.681,40.835z M14.662,46.165&#10;&#9;c1.605-2.954,1.504-6.948,1.529-6.977c0.016,0.02-3.353,0.151-5.227,3.153c-1.907,3.036-1.112,7.7-1.084,7.668&#10;&#9;C9.899,50.031,13.037,49.142,14.662,46.165z M8.938,50.202c-0.031-0.014-1.021-4.5-3.326-7.43c-2.339-2.938-5.593-3.109-5.608-3.086&#10;&#9;c-0.044-0.019,0.358,5.376,3.021,8.259C5.644,50.811,8.951,50.178,8.938,50.202z M16.617,54.403&#10;&#9;c1.156-3.146,0.467-7.045,0.486-7.072c0.02,0.017-3.285,0.644-4.697,3.865c-1.437,3.261,0.023,7.736,0.047,7.701&#10;&#9;C12.474,58.917,15.445,57.579,16.617,54.403z M5.379,57.876c3.001,2.433,6.18,1.321,6.169,1.351&#10;&#9;c-0.03-0.012-1.658-4.286-4.366-6.813c-2.742-2.541-5.985-2.225-5.999-2.196C1.139,50.2,2.331,55.427,5.379,57.876z M19.736,62.246&#10;&#9;c0.69-3.284-0.557-7.027-0.539-7.057c0.021,0.015-3.15,1.119-4.082,4.506c-0.949,3.427,1.133,7.643,1.15,7.604&#10;&#9;C16.287,67.315,19.031,65.555,19.736,62.246z M15.421,67.759c-0.034-0.008-2.25-4.001-5.291-6.095&#10;&#9;c-3.073-2.101-6.229-1.311-6.238-1.282c-0.047-0.009,1.889,4.97,5.246,6.945C12.449,69.292,15.425,67.73,15.421,67.759z&#10;&#9; M17.664,8.409C19.806,4.493,20.357,0.033,20.373,0c0.031-0.031-4.309,1.927-6.688,6.255c-2.392,4.323-1.56,8.663-1.56,8.624&#10;&#9;C12.148,14.848,15.492,12.319,17.664,8.409z" class="color c1"/></g><g transform="translate(383.63235294117646,215)translate(-10.808823529411764,35)rotate(0)translate(10.808823529411764,-35) scale(-1.014056058674525,1.014056058674525)" opacity="1"><defs class="defs"/><path fill="#404041" d="M16.582,20.393c2.813-2.087,4.693-5.991,4.736-6.007c0.01,0.025-3.07-1.348-6.211,0.699&#10;&#9;c-3.189,2.067-4.644,6.839-4.598,6.817C10.521,21.928,13.732,22.498,16.582,20.393z M9.578,21.666&#10;&#9;c-0.028-0.024,1.167-4.714,0.542-8.564C9.472,9.224,6.669,7.589,6.637,7.61c-0.038-0.03-2.343,5.351-1.303,9.274&#10;&#9;C6.335,20.775,9.605,21.646,9.578,21.666z M18.218,22.587c0.015,0.023-3.243-0.852-5.987,1.561c-2.788,2.434-3.449,7.243-3.407,7.22&#10;&#9;c0.011,0.021,3.272,0.097,5.741-2.344C16.998,26.604,18.181,22.608,18.218,22.587z M7.862,31.273&#10;&#9;c-0.028-0.021,0.392-4.713-0.874-8.309c-1.296-3.614-4.335-4.77-4.361-4.746C2.588,18.19,1.24,23.662,2.904,27.29&#10;&#9;C4.524,30.886,7.885,31.249,7.862,31.273z M8.643,40.785c0.016,0.021,3.25-0.394,5.31-3.125c2.027-2.711,2.551-6.738,2.582-6.762&#10;&#9;c0.016,0.021-3.336-0.349-5.659,2.384C8.52,36.039,8.607,40.815,8.643,40.785z M7.681,40.835c-0.032-0.02-0.341-4.645-2.163-7.927&#10;&#9;c-1.857-3.305-5.045-3.968-5.066-3.944c-0.043-0.022-0.487,5.454,1.713,8.73C4.326,40.951,7.698,40.81,7.681,40.835z M14.662,46.165&#10;&#9;c1.605-2.954,1.504-6.948,1.529-6.977c0.016,0.02-3.353,0.151-5.227,3.153c-1.907,3.036-1.112,7.7-1.084,7.668&#10;&#9;C9.899,50.031,13.037,49.142,14.662,46.165z M8.938,50.202c-0.031-0.014-1.021-4.5-3.326-7.43c-2.339-2.938-5.593-3.109-5.608-3.086&#10;&#9;c-0.044-0.019,0.358,5.376,3.021,8.259C5.644,50.811,8.951,50.178,8.938,50.202z M16.617,54.403&#10;&#9;c1.156-3.146,0.467-7.045,0.486-7.072c0.02,0.017-3.285,0.644-4.697,3.865c-1.437,3.261,0.023,7.736,0.047,7.701&#10;&#9;C12.474,58.917,15.445,57.579,16.617,54.403z M5.379,57.876c3.001,2.433,6.18,1.321,6.169,1.351&#10;&#9;c-0.03-0.012-1.658-4.286-4.366-6.813c-2.742-2.541-5.985-2.225-5.999-2.196C1.139,50.2,2.331,55.427,5.379,57.876z M19.736,62.246&#10;&#9;c0.69-3.284-0.557-7.027-0.539-7.057c0.021,0.015-3.15,1.119-4.082,4.506c-0.949,3.427,1.133,7.643,1.15,7.604&#10;&#9;C16.287,67.315,19.031,65.555,19.736,62.246z M15.421,67.759c-0.034-0.008-2.25-4.001-5.291-6.095&#10;&#9;c-3.073-2.101-6.229-1.311-6.238-1.282c-0.047-0.009,1.889,4.97,5.246,6.945C12.449,69.292,15.425,67.73,15.421,67.759z&#10;&#9; M17.664,8.409C19.806,4.493,20.357,0.033,20.373,0c0.031-0.031-4.309,1.927-6.688,6.255c-2.392,4.323-1.56,8.663-1.56,8.624&#10;&#9;C12.148,14.848,15.492,12.319,17.664,8.409z" class="color c1"/></g><g transform="translate(180.56896551724142,235.35013262599466)translate(61,46.923076923076934)rotate(0)translate(-61,-46.923076923076934) scale(1.0472103004291846,1.0472103004291846)" opacity="1"><defs class="defs"/><path fill="#2f2f30" d="M9.538,43.871c0,0-1.154-10.391,10.775-5.387l-2.309-8.852c0,0-10.775-5.003-16.549,4.617&#10;&#9;c-5.771,9.621,6.158,26.939,26.17,26.553C27.626,60.804,10.31,55.031,9.538,43.871z M26.856,24.394&#10;&#9;c31.172,14.35,78.505,3.229,78.505,3.229c3.851-1.076,22.32-10.044,1.156-21.165c0,0,8.096,5.222,4.146,10.409&#10;&#9;c-1.398-5.545-20.722-9.94-44.361-9.94c-19.679,0-36.361,3.047-42.208,7.267C22.788,8.639,31.271,2.732,46.483,0&#10;&#9;C46.483,0-5.085,6.816,26.856,24.394z M99.965,68.353c7.35-7.346,8.818-19.48,8.818-19.48c-5.343,4.39-13.16,4.008-13.16,4.008&#10;&#9;c-12.779,0-16.213,13.541-15.068,16.211c10.682,2.861,21.744-9.729,21.744-9.729c-6.295,12.971-19.646,14.115-19.646,14.115&#10;&#9;c7.408,1.246,12.754-0.953,16.607-4.465c4.783,2.115,13.795,7.713-8.178,13.238c-26.217,6.596-78.811-4.765-46.378-12.838&#10;&#9;c7.26,4.774,16.634,7.274,28.716,5.244c0,0-26.938-2.31-39.636-28.478c0,0,22.32,25.399,43.871,19.627&#10;&#9;c2.309-5.39-4.619-32.712-30.402-32.712c0,0-15.779,0.771-26.553-8.081c0,0,3.635,30.049,23.016,43.719&#10;&#9;c-8.52,1.166-20.715,3.944-20.402,10.306c0.479,9.75,62.634,16.358,84.854,3.465C126.204,72.039,107.612,69.091,99.965,68.353z" class="color c1"/></g><g transform="translate(195.68827586206802,180.53935227439868)translate(24.310344827587365,24.288233932498812)rotate(90)translate(-24.310344827587365,-24.288233932498812) scale(0.0972411848279798,0.0972411848279798)" opacity="1"><defs class="defs"/><path fill="#2f2f30" d="M0,239.78c0,0,2.09,0.879,5.82,2.698c0.923,0.496,1.997,0.889,3.143,1.316&#10;&#9;c1.101,0.432,2.307,0.901,3.607,1.411c1.229,0.515,2.791,0.903,4.268,1.401c1.502,0.493,3.021,1.064,4.754,1.438&#10;&#9;c6.711,1.799,14.663,3.188,23.604,3.489c8.94,0.334,18.833-0.309,29.59-1.807c10.737-1.45,22.461-3.967,34.924-6.951&#10;&#9;c12.464-2.981,25.789-6.714,39.727-10.613c13.951-3.938,28.582-8.213,43.709-12.354c15.132-4.18,30.773-8.357,46.727-12.192&#10;&#9;c15.986-3.789,32.275-7.278,48.697-10.095c16.441-2.815,32.994-4.89,49.42-5.964c16.442-1.03,32.676-1.14,48.397,0.251&#10;&#9;c15.701,1.389,30.768,4.026,44.504,8.394c13.718,4.292,25.966,10.139,35.771,16.848c9.836,6.689,17.137,14.138,21.987,20.837&#10;&#9;c4.95,6.624,7.66,12.378,9.242,16.313c1.51,4.009,2.109,6.13,2.109,6.13s-2.144-0.928-5.786-2.639&#10;&#9;c-0.884-0.449-1.963-0.848-3.12-1.285c-1.121-0.446-2.344-0.932-3.667-1.457c-1.27-0.553-2.808-0.906-4.29-1.416&#10;&#9;c-1.501-0.488-3.021-1.055-4.758-1.426c-6.714-1.788-14.67-3.16-23.607-3.445c-8.937-0.32-18.818,0.337-29.57,1.843&#10;&#9;c-10.729,1.458-22.446,3.981-34.902,6.965c-12.458,2.981-25.781,6.707-39.717,10.597c-13.955,3.906-28.579,8.205-43.708,12.322&#10;&#9;c-15.141,4.162-30.791,8.288-46.746,12.113c-15.988,3.784-32.29,7.225-48.716,10.021c-16.445,2.791-32.993,4.886-49.424,5.931&#10;&#9;c-16.44,1.019-32.669,1.121-48.384-0.272c-15.698-1.39-30.757-4.023-44.487-8.385c-13.708-4.287-25.947-10.122-35.747-16.818&#10;&#9;c-9.834-6.676-17.134-14.109-21.992-20.799c-1.281-1.584-2.314-3.271-3.311-4.779c-0.493-0.76-0.939-1.52-1.382-2.236&#10;&#9;c-0.439-0.706-0.854-1.409-1.221-2.146c-1.475-2.855-2.725-5.217-3.389-7.167C0.656,241.951,0,239.78,0,239.78z" class="color c1"/></g><g transform="translate(252.41241379310247,180.7117660675021)translate(24.310344827587365,24.288233932498812)rotate(90)translate(-24.310344827587365,-24.288233932498812) scale(0.0972411848279798,0.0972411848279798)" opacity="1"><defs class="defs"/><path fill="#2f2f30" d="M0,239.78c0,0,2.09,0.879,5.82,2.698c0.923,0.496,1.997,0.889,3.143,1.316&#10;&#9;c1.101,0.432,2.307,0.901,3.607,1.411c1.229,0.515,2.791,0.903,4.268,1.401c1.502,0.493,3.021,1.064,4.754,1.438&#10;&#9;c6.711,1.799,14.663,3.188,23.604,3.489c8.94,0.334,18.833-0.309,29.59-1.807c10.737-1.45,22.461-3.967,34.924-6.951&#10;&#9;c12.464-2.981,25.789-6.714,39.727-10.613c13.951-3.938,28.582-8.213,43.709-12.354c15.132-4.18,30.773-8.357,46.727-12.192&#10;&#9;c15.986-3.789,32.275-7.278,48.697-10.095c16.441-2.815,32.994-4.89,49.42-5.964c16.442-1.03,32.676-1.14,48.397,0.251&#10;&#9;c15.701,1.389,30.768,4.026,44.504,8.394c13.718,4.292,25.966,10.139,35.771,16.848c9.836,6.689,17.137,14.138,21.987,20.837&#10;&#9;c4.95,6.624,7.66,12.378,9.242,16.313c1.51,4.009,2.109,6.13,2.109,6.13s-2.144-0.928-5.786-2.639&#10;&#9;c-0.884-0.449-1.963-0.848-3.12-1.285c-1.121-0.446-2.344-0.932-3.667-1.457c-1.27-0.553-2.808-0.906-4.29-1.416&#10;&#9;c-1.501-0.488-3.021-1.055-4.758-1.426c-6.714-1.788-14.67-3.16-23.607-3.445c-8.937-0.32-18.818,0.337-29.57,1.843&#10;&#9;c-10.729,1.458-22.446,3.981-34.902,6.965c-12.458,2.981-25.781,6.707-39.717,10.597c-13.955,3.906-28.579,8.205-43.708,12.322&#10;&#9;c-15.141,4.162-30.791,8.288-46.746,12.113c-15.988,3.784-32.29,7.225-48.716,10.021c-16.445,2.791-32.993,4.886-49.424,5.931&#10;&#9;c-16.44,1.019-32.669,1.121-48.384-0.272c-15.698-1.39-30.757-4.023-44.487-8.385c-13.708-4.287-25.947-10.122-35.747-16.818&#10;&#9;c-9.834-6.676-17.134-14.109-21.992-20.799c-1.281-1.584-2.314-3.271-3.311-4.779c-0.493-0.76-0.939-1.52-1.382-2.236&#10;&#9;c-0.439-0.706-0.854-1.409-1.221-2.146c-1.475-2.855-2.725-5.217-3.389-7.167C0.656,241.951,0,239.78,0,239.78z" class="color c1"/></g><g transform="translate(222.92965517241282,180.19452468819176)translate(24.310344827587365,24.288233932498812)rotate(90)translate(-24.310344827587365,-24.288233932498812) scale(0.0972411848279798,0.0972411848279798)" opacity="1"><defs class="defs"/><path fill="#2f2f30" d="M0,239.78c0,0,2.09,0.879,5.82,2.698c0.923,0.496,1.997,0.889,3.143,1.316&#10;&#9;c1.101,0.432,2.307,0.901,3.607,1.411c1.229,0.515,2.791,0.903,4.268,1.401c1.502,0.493,3.021,1.064,4.754,1.438&#10;&#9;c6.711,1.799,14.663,3.188,23.604,3.489c8.94,0.334,18.833-0.309,29.59-1.807c10.737-1.45,22.461-3.967,34.924-6.951&#10;&#9;c12.464-2.981,25.789-6.714,39.727-10.613c13.951-3.938,28.582-8.213,43.709-12.354c15.132-4.18,30.773-8.357,46.727-12.192&#10;&#9;c15.986-3.789,32.275-7.278,48.697-10.095c16.441-2.815,32.994-4.89,49.42-5.964c16.442-1.03,32.676-1.14,48.397,0.251&#10;&#9;c15.701,1.389,30.768,4.026,44.504,8.394c13.718,4.292,25.966,10.139,35.771,16.848c9.836,6.689,17.137,14.138,21.987,20.837&#10;&#9;c4.95,6.624,7.66,12.378,9.242,16.313c1.51,4.009,2.109,6.13,2.109,6.13s-2.144-0.928-5.786-2.639&#10;&#9;c-0.884-0.449-1.963-0.848-3.12-1.285c-1.121-0.446-2.344-0.932-3.667-1.457c-1.27-0.553-2.808-0.906-4.29-1.416&#10;&#9;c-1.501-0.488-3.021-1.055-4.758-1.426c-6.714-1.788-14.67-3.16-23.607-3.445c-8.937-0.32-18.818,0.337-29.57,1.843&#10;&#9;c-10.729,1.458-22.446,3.981-34.902,6.965c-12.458,2.981-25.781,6.707-39.717,10.597c-13.955,3.906-28.579,8.205-43.708,12.322&#10;&#9;c-15.141,4.162-30.791,8.288-46.746,12.113c-15.988,3.784-32.29,7.225-48.716,10.021c-16.445,2.791-32.993,4.886-49.424,5.931&#10;&#9;c-16.44,1.019-32.669,1.121-48.384-0.272c-15.698-1.39-30.757-4.023-44.487-8.385c-13.708-4.287-25.947-10.122-35.747-16.818&#10;&#9;c-9.834-6.676-17.134-14.109-21.992-20.799c-1.281-1.584-2.314-3.271-3.311-4.779c-0.493-0.76-0.939-1.52-1.382-2.236&#10;&#9;c-0.439-0.706-0.854-1.409-1.221-2.146c-1.475-2.855-2.725-5.217-3.389-7.167C0.656,241.951,0,239.78,0,239.78z" class="color c1"/></g></svg>